<svg width="39" height="41" viewBox="0 0 39 41" fill="none" xmlns="http://www.w3.org/2000/svg">
<ellipse cx="19.3972" cy="20.5" rx="19.3972" ry="20.5" fill="white"/>
<g filter="url(#filter0_d)">
<path d="M20.8127 29.98C19.0906 29.98 17.5817 29.59 16.2861 28.81C15.0068 28.03 14.0227 26.9293 13.3339 25.508C12.6451 24.0693 12.3007 22.388 12.3007 20.464C12.3007 18.5573 12.6451 16.8933 13.3339 15.472C14.0227 14.0333 15.0068 12.9327 16.2861 12.17C17.5817 11.39 19.0906 11 20.8127 11C21.9936 11 23.1006 11.1993 24.1339 11.598C25.1835 11.9793 26.0528 12.5167 26.7416 13.21L25.7084 15.654C24.9211 14.978 24.1339 14.4927 23.3466 14.198C22.5758 13.886 21.7475 13.73 20.8619 13.73C19.1726 13.73 17.8605 14.3107 16.9257 15.472C16.0073 16.6333 15.548 18.2973 15.548 20.464C15.548 22.648 16.0073 24.3293 16.9257 25.508C17.8441 26.6693 19.1562 27.25 20.8619 27.25C21.7475 27.25 22.5758 27.1027 23.3466 26.808C24.1339 26.496 24.9211 26.002 25.7084 25.326L26.7416 27.77C26.0528 28.4633 25.1835 29.0093 24.1339 29.408C23.1006 29.7893 21.9936 29.98 20.8127 29.98Z" fill="#62B1F3"/>
</g>
<defs>
<filter id="filter0_d" x="10.3007" y="11" width="18.4409" height="22.98" filterUnits="userSpaceOnUse" color-interpolation-filters="sRGB">
<feFlood flood-opacity="0" result="BackgroundImageFix"/>
<feColorMatrix in="SourceAlpha" type="matrix" values="0 0 0 0 0 0 0 0 0 0 0 0 0 0 0 0 0 0 127 0"/>
<feOffset dy="2"/>
<feGaussianBlur stdDeviation="1"/>
<feColorMatrix type="matrix" values="0 0 0 0 0 0 0 0 0 0 0 0 0 0 0 0 0 0 0.15 0"/>
<feBlend mode="normal" in2="BackgroundImageFix" result="effect1_dropShadow"/>
<feBlend mode="normal" in="SourceGraphic" in2="effect1_dropShadow" result="shape"/>
</filter>
</defs>
</svg>
