<svg width="61" height="44" viewBox="0 0 61 44" fill="none" xmlns="http://www.w3.org/2000/svg">
<path d="M56.3342 0.620972H53.2575C52.7722 0.620972 52.3789 1.01426 52.3789 1.49964C52.3789 1.98502 52.7722 2.37831 53.2575 2.37831H56.3342C57.7876 2.37831 58.9702 3.56089 58.9702 5.01432V9.05621H2.50096V5.01432C2.50096 3.56089 3.68342 2.37831 5.13697 2.37831H49.3996C49.885 2.37831 50.2783 1.98502 50.2783 1.49964C50.2783 1.01426 49.885 0.620972 49.3996 0.620972H5.13697C2.71442 0.620972 0.743622 2.59177 0.743622 5.01432V14.7009C0.743622 15.1863 1.13703 15.5796 1.62229 15.5796C2.10755 15.5796 2.50096 15.1863 2.50096 14.7009V10.8135H58.9702V33.4675C58.9702 33.9529 59.3635 34.3462 59.8488 34.3462C60.3342 34.3462 60.7275 33.9529 60.7275 33.4675V5.01432C60.7275 2.59177 58.7567 0.620972 56.3342 0.620972Z" fill="white"/>
<path d="M59.8488 36.2943C59.3635 36.2943 58.9702 36.6876 58.9702 37.173V39.4582C58.9702 40.9116 57.7876 42.0942 56.3342 42.0942H5.13697C3.68342 42.0942 2.50096 40.9116 2.50096 39.4582V18.4717C2.50096 17.9863 2.10755 17.593 1.62229 17.593C1.13703 17.593 0.743622 17.9863 0.743622 18.4717V39.4582C0.743622 41.8808 2.71442 43.8516 5.13697 43.8516H56.3342C58.7567 43.8516 60.7275 41.8808 60.7275 39.4582V37.173C60.7275 36.6877 60.3342 36.2943 59.8488 36.2943Z" fill="white"/>
<path d="M13.453 19.7124C13.1098 19.3693 12.5534 19.3693 12.2104 19.7124L6.93017 24.9926C6.76533 25.1574 6.67278 25.3808 6.67278 25.614C6.67278 25.8471 6.76533 26.0704 6.93017 26.2354L12.1406 31.4458C12.3121 31.6173 12.537 31.703 12.7618 31.703C12.9867 31.703 13.2116 31.6173 13.3831 31.4458C13.7263 31.1025 13.7263 30.5462 13.3831 30.2031L8.794 25.6141L13.453 20.9551C13.7962 20.6119 13.7962 20.0556 13.453 19.7124Z" fill="white"/>
<path d="M25.2696 31.4456C25.4411 31.6171 25.666 31.7029 25.8908 31.7029C26.1157 31.7029 26.3406 31.6171 26.5121 31.4456L31.7226 26.2352C31.8873 26.0704 31.9799 25.847 31.9799 25.6138C31.9799 25.3807 31.8873 25.1574 31.7226 24.9924L26.4423 19.7122C26.0991 19.3692 25.5428 19.3692 25.1997 19.7122C24.8566 20.0555 24.8566 20.6118 25.1997 20.9549L29.8588 25.6138L25.2697 30.2028C24.9264 30.5462 24.9264 31.1025 25.2696 31.4456Z" fill="white"/>
<path d="M16.207 34.6822C16.5614 34.6822 16.8954 34.4661 17.0286 34.115L23.2724 17.6665C23.4446 17.2128 23.2164 16.7054 22.7627 16.5332C22.3091 16.3608 21.8016 16.5892 21.6295 17.0428L15.3858 33.4915C15.2135 33.9451 15.4418 34.4525 15.8954 34.6248C15.998 34.6638 16.1033 34.6822 16.207 34.6822Z" fill="white"/>
<path d="M4.61046 5.76077C4.61046 7.2142 5.79292 8.39678 7.24647 8.39678C8.70003 8.39678 9.88248 7.2142 9.88248 5.76077C9.88248 4.30733 8.70003 3.12476 7.24647 3.12476C5.79292 3.12476 4.61046 4.30733 4.61046 5.76077ZM8.12514 5.76077C8.12514 6.24532 7.73103 6.63944 7.24647 6.63944C6.76191 6.63944 6.3678 6.24532 6.3678 5.76077C6.3678 5.27621 6.76191 4.8821 7.24647 4.8821C7.73103 4.8821 8.12514 5.27621 8.12514 5.76077Z" fill="white"/>
<path d="M11.4243 5.76077C11.4243 7.2142 12.6067 8.39678 14.0603 8.39678C15.5138 8.39678 16.6963 7.2142 16.6963 5.76077C16.6963 4.30733 15.5138 3.12476 14.0603 3.12476C12.6067 3.12476 11.4243 4.30733 11.4243 5.76077ZM14.939 5.76077C14.939 6.24532 14.5448 6.63944 14.0603 6.63944C13.5757 6.63944 13.1816 6.24532 13.1816 5.76077C13.1816 5.27621 13.5757 4.8821 14.0603 4.8821C14.5448 4.8821 14.939 5.27621 14.939 5.76077Z" fill="white"/>
<path d="M18.2379 5.76077C18.2379 7.2142 19.4204 8.39678 20.8739 8.39678C22.3275 8.39678 23.51 7.2142 23.51 5.76077C23.51 4.30733 22.3275 3.12476 20.8739 3.12476C19.4204 3.12476 18.2379 4.30733 18.2379 5.76077ZM21.7526 5.76077C21.7526 6.24532 21.3585 6.63944 20.8739 6.63944C20.3894 6.63944 19.9953 6.24532 19.9953 5.76077C19.9953 5.27621 20.3894 4.8821 20.8739 4.8821C21.3585 4.8821 21.7526 5.27621 21.7526 5.76077Z" fill="white"/>
<path d="M40.0495 20.6392H45.5558C47.0092 20.6392 48.1918 19.4566 48.1918 18.0032C48.1918 16.5498 47.0092 15.3672 45.5558 15.3672H40.0495C38.596 15.3672 37.4135 16.5498 37.4135 18.0032C37.4135 19.4566 38.596 20.6392 40.0495 20.6392ZM40.0495 17.1245H45.5558C46.0404 17.1245 46.4345 17.5186 46.4345 18.0032C46.4345 18.4878 46.0404 18.8819 45.5558 18.8819H40.0495C39.5649 18.8819 39.1708 18.4878 39.1708 18.0032C39.1708 17.5186 39.5649 17.1245 40.0495 17.1245Z" fill="white"/>
<path d="M40.0495 27.6685H54.5768C56.0303 27.6685 57.2128 26.4859 57.2128 25.0325C57.2128 23.5791 56.0303 22.3965 54.5768 22.3965H40.0495C38.596 22.3965 37.4135 23.5791 37.4135 25.0325C37.4135 26.4859 38.596 27.6685 40.0495 27.6685ZM40.0495 24.1538H54.5768C55.0614 24.1538 55.4555 24.5479 55.4555 25.0325C55.4555 25.517 55.0614 25.9112 54.5768 25.9112H40.0495C39.5649 25.9112 39.1708 25.517 39.1708 25.0325C39.1708 24.5479 39.5649 24.1538 40.0495 24.1538Z" fill="white"/>
<path d="M40.0495 34.6979H50.2614C51.7148 34.6979 52.8974 33.5154 52.8974 32.0619C52.8974 30.6085 51.7148 29.4259 50.2614 29.4259H40.0495C38.596 29.4259 37.4135 30.6085 37.4135 32.0619C37.4135 33.5154 38.596 34.6979 40.0495 34.6979ZM40.0495 31.1832H50.2614C50.7459 31.1832 51.1401 31.5774 51.1401 32.0619C51.1401 32.5465 50.7459 32.9406 50.2614 32.9406H40.0495C39.5649 32.9406 39.1708 32.5465 39.1708 32.0619C39.1708 31.5774 39.5649 31.1832 40.0495 31.1832Z" fill="white"/>
</svg>
