<svg width="53" height="53" viewBox="0 0 53 53" fill="none" xmlns="http://www.w3.org/2000/svg">
<path d="M32.2715 19.7484C31.7056 19.7484 31.2463 20.2014 31.2463 20.7595C31.2463 21.3176 31.7056 21.7705 32.2715 21.7705C32.8373 21.7705 33.2966 21.3176 33.2966 20.7595C33.2966 20.2014 32.8373 19.7484 32.2715 19.7484Z" fill="white"/>
<path d="M51.7772 45.4008L38.094 31.9053C40.3231 28.5937 41.4973 24.7588 41.4973 20.7596C41.4973 9.60971 32.3 0.538574 20.995 0.538574C9.69001 0.538574 0.492676 9.60971 0.492676 20.7596C0.492676 31.9094 9.69001 40.9806 20.995 40.9806C25.0499 40.9806 28.9382 39.8224 32.2957 37.6241L36.0779 41.3543C36.0784 41.3549 36.0789 41.3554 36.0796 41.356L45.9789 51.1195C46.7537 51.8835 47.7832 52.3043 48.8781 52.3043C49.973 52.3043 51.0026 51.8835 51.7769 51.1198C52.5518 50.3561 52.9786 49.3406 52.9786 48.2601C52.9786 47.1796 52.5518 46.1641 51.7772 45.4008ZM31.8136 35.4933C31.8136 35.4934 31.8135 35.4934 31.8134 35.4935C28.6492 37.7603 24.9084 38.9585 20.995 38.9585C10.8205 38.9585 2.54291 30.7944 2.54291 20.7596C2.54291 10.7247 10.8205 2.56067 20.995 2.56067C31.1695 2.56067 39.4471 10.7247 39.4471 20.7596C39.4471 24.6193 38.2322 28.3088 35.9338 31.4297C34.7839 32.9921 33.3977 34.3593 31.8136 35.4933ZM33.9643 36.4099C35.0253 35.5539 35.9952 34.5973 36.863 33.551L39.7714 36.4194C38.8869 37.449 37.9166 38.4061 36.8727 39.2784L33.9643 36.4099ZM50.3275 49.6896C49.94 50.0718 49.4253 50.2822 48.8781 50.2822C48.3309 50.2822 47.8162 50.0718 47.4287 49.6896L38.3262 40.712C39.3643 39.8333 40.3341 38.877 41.2249 37.8531L50.3277 46.831C50.715 47.2126 50.9283 47.72 50.9283 48.2601C50.9283 48.8002 50.715 49.3077 50.3275 49.6896Z" fill="white"/>
<path d="M20.9952 4.58276C11.9511 4.58276 4.59332 11.8396 4.59332 20.7595C4.59332 29.6795 11.9511 36.9363 20.9952 36.9363C30.0393 36.9363 37.397 29.6795 37.397 20.7595C37.397 11.8396 30.0393 4.58276 20.9952 4.58276ZM20.9952 34.9142C13.0817 34.9142 6.64355 28.5644 6.64355 20.7595C6.64355 12.9546 13.0817 6.60486 20.9952 6.60486C28.9087 6.60486 35.3468 12.9546 35.3468 20.7595C35.3468 28.5644 28.9087 34.9142 20.9952 34.9142Z" fill="white"/>
<path d="M32.4832 16.4194C31.6004 14.1535 30.0635 12.2161 28.0382 10.8169C25.9648 9.38423 23.5294 8.62695 20.9952 8.62695C20.4291 8.62695 19.9701 9.0797 19.9701 9.63801C19.9701 10.1963 20.4291 10.6491 20.9952 10.6491C25.2083 10.6491 29.0558 13.2594 30.5694 17.1448C30.726 17.5468 31.1144 17.7935 31.5265 17.7935C31.6487 17.7935 31.7731 17.7717 31.8939 17.7259C32.4224 17.5256 32.6862 16.9407 32.4832 16.4194Z" fill="white"/>
</svg>
