<svg width="56" height="55" viewBox="0 0 56 55" fill="none" xmlns="http://www.w3.org/2000/svg">
<path d="M54.7801 53.2902H49.5613V21.8236C49.5613 21.384 49.2 21.0276 48.7542 21.0276H40.146C39.7002 21.0276 39.3389 21.384 39.3389 21.8236V53.2902H33.2056V31.1627C33.2056 30.7232 32.8443 30.3667 32.3985 30.3667H23.7902C23.3444 30.3667 22.9832 30.7232 22.9832 31.1627V53.2902H16.8498V35.4078C16.8498 34.9682 16.4885 34.6118 16.0427 34.6118H7.43449C6.9887 34.6118 6.62743 34.9682 6.62743 35.4078V53.2901H1.40863C0.962835 53.2901 0.601562 53.6465 0.601562 54.0861C0.601562 54.5257 0.962835 54.8821 1.40863 54.8821H54.7801C55.2259 54.8821 55.5872 54.5257 55.5872 54.0861C55.5871 53.6465 55.2259 53.2902 54.7801 53.2902ZM15.2357 53.2902H8.24145V36.2038H15.2357V53.2902ZM31.5915 53.2902H24.5973V31.9587H31.5915V53.2902ZM47.9473 53.2902H40.953V22.6196H47.9473V53.2902Z" fill="white"/>
<path d="M53.0105 1.27557C52.4666 0.801998 51.7427 0.581366 51.0231 0.670551L44.1365 1.51961C42.7694 1.68813 41.77 2.95377 41.941 4.30351C42.1138 5.66744 43.379 6.63947 44.7638 6.46894L45.3257 6.39977C36.8732 16.0656 26.8247 21.061 19.7241 23.5716C10.8704 26.702 3.97929 26.9698 3.91217 26.972C2.52002 27.0149 1.4216 28.167 1.4637 29.5403C1.50536 30.8965 2.61506 31.9587 3.99024 31.9587C4.0158 31.9587 4.04147 31.9584 4.06778 31.9576C4.37417 31.9485 11.6792 31.694 21.3033 28.3118C26.7136 26.4103 31.8045 23.8861 36.4343 20.8095C36.804 20.5639 36.9017 20.0691 36.6525 19.7046C36.4036 19.3399 35.9021 19.2437 35.5323 19.4893C31.0145 22.4917 26.0448 24.9555 20.7615 26.8123C11.3739 30.1114 4.31468 30.3575 4.01945 30.3663L3.99024 30.3668C3.49322 30.3668 3.092 29.9826 3.07696 29.4921C3.06171 28.9953 3.45907 28.5786 3.96296 28.563C4.03341 28.5608 11.1212 28.3043 20.2688 25.07C27.9323 22.3605 38.9438 16.8279 47.8825 5.85842C48.3275 5.31229 47.857 4.48304 47.1535 4.57L44.564 4.88925C44.1151 4.94401 43.6791 4.65389 43.5652 4.22153C43.4281 3.70125 43.7967 3.16571 44.3369 3.09898L51.2237 2.24993C51.7614 2.18288 52.2516 2.61154 52.2516 3.14506V9.93719C52.2516 10.4346 51.8414 10.8393 51.3369 10.8393C50.8325 10.8393 50.4222 10.4347 50.4222 9.93719V7.8781C50.4222 7.55282 50.209 7.24862 49.9005 7.13369C49.5819 7.01496 49.2054 7.11463 48.9899 7.37477C45.9757 11.0175 42.5436 14.3137 38.7888 17.1719C38.436 17.4405 38.3706 17.9403 38.643 18.2884C38.9153 18.6364 39.4223 18.7007 39.775 18.4322C43.0457 15.9425 46.0774 13.1292 48.8108 10.0496C48.8705 11.3728 49.9808 12.4314 51.337 12.4314C52.7313 12.4314 53.8657 11.3126 53.8657 9.9374V3.14527C53.8656 2.43031 53.554 1.74871 53.0105 1.27557Z" fill="white"/>
</svg>
